Coordinates
version=1
nRows=4
nColumns=63
inDegrees=yes

Units are S.I. units (second, meters, Newtons, ...)
If the header above contains a line with 'inDegrees', this indicates whether rotational values are in degrees (yes) or radians (no).

endheader
time	pelvis_tilt	pelvis_list	pelvis_rotation	pelvis_tx	pelvis_ty	pelvis_tz	hip_flexion_r	hip_adduction_r	hip_rotation_r	knee_angle_r	knee_angle_r_beta	ankle_angle_r	subtalar_angle_r	mtp_angle_r	hip_flexion_l	hip_adduction_l	hip_rotation_l	knee_angle_l	knee_angle_l_beta	ankle_angle_l	subtalar_angle_l	mtp_angle_l	L5_S1_Flex_Ext	L5_S1_Lat_Bending	L5_S1_axial_rotation	L4_L5_Flex_Ext	L4_L5_Lat_Bending	L4_L5_axial_rotation	L3_L4_Flex_Ext	L3_L4_Lat_Bending	L3_L4_axial_rotation	L2_L3_Flex_Ext	L2_L3_Lat_Bending	L2_L3_axial_rotation	L1_L2_Flex_Ext	L1_L2_Lat_Bending	L1_L2_axial_rotation	L1_T12_Flex_Ext	L1_T12_Lat_Bending	L1_T12_axial_rotation	Abs_r3	Abs_r2	Abs_r1	Abs_t1	Abs_t2	neck_flexion	neck_bending	neck_rotation	arm_flex_r	arm_add_r	arm_rot_r	elbow_flex_r	pro_sup_r	wrist_flex_r	wrist_dev_r	arm_flex_l	arm_add_l	arm_rot_l	elbow_flex_l	pro_sup_l	wrist_flex_l	wrist_dev_l
      3.88300000	    -41.34089882	      1.34384181	     -1.00668175	     -0.14653833	      1.02801563	      0.03910412	     97.27899009	     -1.02684622	      7.49265325	    108.54339293	      1.89443959	     -3.54307427	    -16.99741624	      0.00000000	     88.18490923	     -3.66456253	      1.62537807	     56.31716047	      0.98291988	      8.84553945	    -15.97471522	      0.00000000	     -0.06597280	     -0.31699419	     -0.25453959	     -0.12251809	     -0.42160227	     -0.27044831	     -0.10838671	     -0.77073968	     -0.27044831	     -0.07540031	     -0.77073968	     -0.22272214	     -0.06126234	     -0.64641455	     -0.20681342	     -0.03769686	     -0.49102400	     -0.19090469	     -0.47123711	     -3.58590169	     -1.41567283	      0.00000000	      0.00000000	      0.00000000	      0.00000000	      0.00000000	     65.17650468	    -15.49033718	     29.80912343	     50.69595439	     58.12782765	      0.00000000	      4.99996527	     63.84900984	    -24.95593111	     27.49323866	     56.06365666	     63.33239360	      0.00000000	      4.99996527
      3.89200000	    -41.31505168	      1.07082167	     -1.23833431	     -0.14653606	      1.02757834	      0.03921659	     98.90041076	     -0.77269967	      7.36082900	    110.67950833	      1.93172183	     -2.85674708	    -16.84482160	      0.00000000	     86.18024023	     -4.02378144	      1.53305486	     53.55526797	      0.93471576	      8.38834413	    -15.85355472	      0.00000000	     -0.06511611	     -0.27030753	     -0.21288162	     -0.12092713	     -0.35950901	     -0.22618672	     -0.10697926	     -0.65722572	     -0.22618672	     -0.07442121	     -0.65722572	     -0.18627142	     -0.06046682	     -0.55121111	     -0.17296631	     -0.03720735	     -0.41870636	     -0.15966121	     -0.46511788	     -3.05777279	     -1.18398370	      0.00000000	      0.00000000	      0.00000000	      0.00000000	      0.00000000	     65.31801028	    -15.53050568	     30.03822329	     50.77508189	     58.13891508	      0.00000000	      4.99996568	     63.76577162	    -24.90376362	     27.40707932	     55.94929210	     63.30992163	      0.00000000	      4.99996568
      3.90000000	    -41.26922213	      1.17491891	     -1.15146490	     -0.14645186	      1.02703278	      0.03903812	    100.58039834	     -0.86912717	      7.58691788	    112.78356427	      1.96844454	     -1.47895376	    -16.37266923	      0.00000000	     84.16219037	     -4.06074522	      0.75483288	     50.91751028	      0.88867820	      7.74380028	    -16.18738991	      0.00000000	     -0.06378086	     -0.27265437	     -0.23876910	     -0.11844743	     -0.36263031	     -0.25369216	     -0.10478557	     -0.66293183	     -0.25369216	     -0.07289514	     -0.66293183	     -0.20892296	     -0.05922691	     -0.55599679	     -0.19399989	     -0.03644438	     -0.42234162	     -0.17907682	     -0.45558030	     -3.08432075	     -1.32796208	      0.00000000	      0.00000000	      0.00000000	      0.00000000	      0.00000000	     65.50618582	    -15.54079787	     30.65054076	     50.79715119	     58.22704042	      0.00000000	      4.99996690	     63.73958549	    -24.97596976	     27.25214550	     55.84555665	     63.34584246	      0.00000000	      4.99996690
      3.90800000	    -41.26851323	      0.74926098	     -1.45657476	     -0.14646827	      1.02671856	      0.03898918	    102.20920543	     -0.59598652	      7.15165319	    114.44115682	      1.99737499	     -0.69670586	    -16.16510733	      0.00000000	     82.44383398	     -4.54857986	      0.64398085	     48.77084364	      0.85121180	      7.02386882	    -15.67207649	      0.00000000	     -0.06408207	     -0.20280331	     -0.18146336	     -0.11900681	     -0.26972840	     -0.19280482	     -0.10528043	     -0.49309596	     -0.19280482	     -0.07323940	     -0.49309596	     -0.15878044	     -0.05950661	     -0.41355650	     -0.14743898	     -0.03661649	     -0.31414232	     -0.13609752	     -0.45773180	     -2.29415156	     -1.00924478	      0.00000000	      0.00000000	      0.00000000	      0.00000000	      0.00000000	     65.68984385	    -15.62451125	     30.78884237	     50.87147849	     58.22480229	      0.00000000	      4.99996732	     63.59854592	    -24.94281809	     27.26940237	     55.84289124	     63.32344034	      0.00000000	      4.99996732
